<!-- Created with Inkscape (http://www.inkscape.org/) --><svg xmlns:inkscape="http://www.inkscape.org/namespaces/inkscape" xmlns:sodipodi="http://sodipodi.sourceforge.net/DTD/sodipodi-0.dtd" xmlns="http://www.w3.org/2000/svg" xmlns:svg="http://www.w3.org/2000/svg" width="50mm" height="50mm" viewBox="0 0 189 189" version="1.1" id="svg5" sodipodi:docname="C:\Users\STUART~1\AppData\Local\Temp\ink_ext_XXXXXX.svgYLDON1">
  <sodipodi:namedview id="namedview7" pagecolor="#ffffff" bordercolor="#666666" borderopacity="1.0" inkscape:showpageshadow="2" inkscape:pageopacity="0.0" inkscape:pagecheckerboard="0" inkscape:deskcolor="#d1d1d1" inkscape:document-units="mm" showgrid="false" inkscape:zoom="0.2102413" inkscape:cx="87.994128" inkscape:cy="561.25984" inkscape:window-width="1858" inkscape:window-height="1057" inkscape:window-x="54" inkscape:window-y="2152" inkscape:window-maximized="1" inkscape:current-layer="layer1" showguides="false"/>
  <defs id="defs2"/>
  <g inkscape:label="Layer 1" inkscape:groupmode="layer" id="layer1"><rect x="0" y="0" width="189" height="189" rx="0.1" ry="0.1" style="stroke:#FFFFFF;fill:#FFFFFF;stroke-width:0"/><rect x="17.6904" y="89.6994" width="153.6192" height="9.6012" rx="0.1" ry="0.1" style="stroke:black;fill:#000000;stroke-width:1"/><rect x="165.2994" y="93.2904" width="2.4192" height="2.4192" rx="0.1" ry="0.1" style="stroke:black;fill:#FFD700;stroke-width:0.5"/><rect x="155.6982" y="93.2904" width="2.4192" height="2.4192" rx="0.1" ry="0.1" style="stroke:black;fill:#FFD700;stroke-width:0.5"/><rect x="146.097" y="93.2904" width="2.4192" height="2.4192" rx="0.1" ry="0.1" style="stroke:black;fill:#FFD700;stroke-width:0.5"/><rect x="136.4958" y="93.2904" width="2.4192" height="2.4192" rx="0.1" ry="0.1" style="stroke:black;fill:#FFD700;stroke-width:0.5"/><rect x="126.8946" y="93.2904" width="2.4192" height="2.4192" rx="0.1" ry="0.1" style="stroke:black;fill:#FFD700;stroke-width:0.5"/><rect x="117.2934" y="93.2904" width="2.4192" height="2.4192" rx="0.1" ry="0.1" style="stroke:black;fill:#FFD700;stroke-width:0.5"/><rect x="107.6922" y="93.2904" width="2.4192" height="2.4192" rx="0.1" ry="0.1" style="stroke:black;fill:#FFD700;stroke-width:0.5"/><rect x="98.091" y="93.2904" width="2.4192" height="2.4192" rx="0.1" ry="0.1" style="stroke:black;fill:#FFD700;stroke-width:0.5"/><rect x="88.4898" y="93.2904" width="2.4192" height="2.4192" rx="0.1" ry="0.1" style="stroke:black;fill:#FFD700;stroke-width:0.5"/><rect x="78.8886" y="93.2904" width="2.4192" height="2.4192" rx="0.1" ry="0.1" style="stroke:black;fill:#FFD700;stroke-width:0.5"/><rect x="69.2874" y="93.2904" width="2.4192" height="2.4192" rx="0.1" ry="0.1" style="stroke:black;fill:#FFD700;stroke-width:0.5"/><rect x="59.6862" y="93.2904" width="2.4192" height="2.4192" rx="0.1" ry="0.1" style="stroke:black;fill:#FFD700;stroke-width:0.5"/><rect x="50.085" y="93.2904" width="2.4192" height="2.4192" rx="0.1" ry="0.1" style="stroke:black;fill:#FFD700;stroke-width:0.5"/><rect x="40.4838" y="93.2904" width="2.4192" height="2.4192" rx="0.1" ry="0.1" style="stroke:black;fill:#FFD700;stroke-width:0.5"/><rect x="30.8826" y="93.2904" width="2.4192" height="2.4192" rx="0.1" ry="0.1" style="stroke:black;fill:#FFD700;stroke-width:0.5"/><rect x="21.2814" y="93.2904" width="2.4192" height="2.4192" rx="0.1" ry="0.1" style="stroke:black;fill:#FFD700;stroke-width:0.5"/><rect x="56.7" y="69.93" width="75.6" height="18.9" rx="0.1" ry="0.1" style="stroke:black;fill:none;stroke-width:0" id="rect3161"/><text x="94.5" y="81.0465075" xml:space="preserve" style="stroke-width:0.4;stroke:black;font-size:5pt;font-family:Relief Single Line Outline;text-align:center;shape-inside:url(#rect3161)">2.54 mm 16 Pin Header</text><rect x="56.7" y="107.73" width="75.6" height="18.9" rx="0.1" ry="0.1" style="stroke:black;fill:none;stroke-width:0" id="rect3864"/><text x="94.5" y="118.1799045" xml:space="preserve" style="stroke-width:0.1;stroke:black;font-size:3pt;font-family:Relief Single Line Outline;text-align:center;shape-inside:url(#rect3864)">http://oom.lt/H16</text></g>
</svg>